<svg width="43" height="43" viewBox="0 0 43 43" fill="none" xmlns="http://www.w3.org/2000/svg">
<rect x="0.5" y="0.5" width="42" height="42" rx="6.5" stroke="white"/>
<path d="M8 7.48206C16.91 7.48206 25.82 7.48206 35 7.48206C35 16.7221 35 25.9621 35 35.4821C26.09 35.4821 17.18 35.4821 8 35.4821C8 26.2421 8 17.0021 8 7.48206ZM11.1154 10.4821C11.1154 12.7921 11.1154 15.1021 11.1154 17.4821C11.8008 17.4821 12.4862 17.4821 13.1923 17.4821C12.2837 24.3571 12.2837 24.3571 11.1154 25.4821C11.0729 27.815 11.0713 30.1491 11.1154 32.4821C12.8288 32.4821 14.5423 32.4821 16.3077 32.4821C16.3077 25.2221 16.3077 17.9621 16.3077 10.4821C14.5942 10.4821 12.8808 10.4821 11.1154 10.4821ZM19.4231 10.4821C19.4231 17.7421 19.4231 25.0021 19.4231 32.4821C20.7938 32.4821 22.1646 32.4821 23.5769 32.4821C23.5769 25.2221 23.5769 17.9621 23.5769 10.4821C22.2062 10.4821 20.8354 10.4821 19.4231 10.4821ZM26.6923 10.4821C26.6923 12.7921 26.6923 15.1021 26.6923 17.4821C27.3777 17.4821 28.0631 17.4821 28.7692 17.4821C27.8606 24.3571 27.8606 24.3571 26.6923 25.4821C26.6498 27.815 26.6483 30.1491 26.6923 32.4821C28.4058 32.4821 30.1192 32.4821 31.8846 32.4821C31.8846 25.2221 31.8846 17.9621 31.8846 10.4821C30.1712 10.4821 28.4577 10.4821 26.6923 10.4821Z" fill="white"/>
</svg>
