<svg width="43" height="43" viewBox="0 0 43 43" fill="none" xmlns="http://www.w3.org/2000/svg">
<rect x="0.5" y="0.5" width="42" height="42" rx="6.5" stroke="white"/>
<path d="M25 7.79057C28.2542 10.0107 29.6957 11.5808 31 15.1173C31 18.6597 30.103 20.5372 28 23.4824C25.9375 24.5208 25.9375 24.5208 24 25.3285C22.732 27.2056 22.732 27.2056 22 29.0207C21.01 28.7161 20.02 28.4115 19 28.0977C19.1875 26.0208 19.1875 26.0208 20 23.4824C22.5 21.6363 22.5 21.6363 25 19.7902C26.0655 17.4923 26.0655 17.4923 26 15.175C25.34 14.2612 24.68 13.3473 24 12.4058C20.4164 12.1749 20.4164 12.1749 17 12.4058C16.34 14.2335 15.68 16.0611 15 17.9441C14.01 17.9441 13.02 17.9441 12 17.9441C12.2332 14.2136 12.4229 12.0938 15.125 9.23284C18.8007 7.38892 20.8715 7.17812 25 7.79057Z" fill="white"/>
<path d="M19 30.8668C21.475 31.3237 21.475 31.3237 24 31.7899C23.67 33.0083 23.34 34.2267 23 35.4821C21.68 35.4821 20.36 35.4821 19 35.4821C19 33.959 19 32.436 19 30.8668Z" fill="white"/>
</svg>
