<svg width="43" height="43" viewBox="0 0 43 43" fill="none" xmlns="http://www.w3.org/2000/svg">
<rect x="0.5" y="0.5" width="42" height="42" rx="6.5" stroke="white"/>
<path d="M5 11.0888C5.01835 11.187 5.48921 14.4767 6.04568 18.4108C6.60827 22.3449 7.29268 26.2545 7.2988 26.2606C7.30491 26.2668 7.4375 26.2606 10.0791 26.5859C10.862 26.5859 11.4062 26.5859 11.987 26.5859C12 27 12.3321 29.6731 12.4054 32.4472L12.4482 34L14 33C16 31 15.8579 30.9759 16.5 30C16.9158 29.3617 17.5 28.5 17.9263 27.784C17.9263 27.784 18 27.5 18.5768 26.9487C20 27.3163 20.0799 27.3163 20.0799 27.3163C21.5 27.5 25.4 28.0896 28.8979 28.5929C32.3896 29.1023 36.1081 29.7713 36.1203 29.7529C36.1387 29.7406 36.4223 25.2909 36.9665 20.3564C37.5108 15.4218 37.9755 12.1657 38 12L37.6608 10H22H6.33306L5 11.0888ZM35.5 13C35.5 13 35.0655 15.2803 34.8054 18C34.6392 19.7368 34.4577 21.6224 34.3092 23.1529C34.1348 24.9494 34.0058 26.2568 34 26.2606C33.9939 26.2668 32.7892 26.0949 31.3277 25.8863C29.5039 25.6217 27.9033 25.3821 26.5 25.166C24.9324 24.9245 23.6111 24.7123 22.5 24.5274C18.5593 23.8717 17.0436 23.8027 16.7812 23.7436C16.6982 24.1622 16.5 24.5 16 26C15.5978 27.2065 15.3346 27.795 14.6069 28.8813L14.1605 29.5503L14.1116 29.0286C13.9342 27.0278 14.104 23.8479 14 23.7436C13.9878 23.7313 13 23.7436 11.987 23.7436H10.862H10.4316C10.3888 23.492 8.55191 13.0775 8.55191 12.7643C8.65531 12.7739 9.18919 12.7779 10.0791 12.7787C11.4575 12.78 13.6899 12.7737 16.5 12.7691C17.2898 12.7678 18.1251 12.7666 19 12.7657C19.8768 12.7649 20.7933 12.7643 21.7432 12.7643C24.0994 12.7643 25.8906 12.7634 27.5 12.7643C31.3277 12.8932 33.5309 12.983 34.5 13C35.376 13.0154 35.5 13 35.5 13Z" fill="white"/>
</svg>
