<svg width="45" height="45" viewBox="0 0 45 45" fill="none" xmlns="http://www.w3.org/2000/svg">
<rect x="0.5" y="0.5" width="44" height="44" rx="7.5" stroke="white"/>
<path d="M27.02 22.4659C29.9408 24.963 29.9408 24.963 31.6933 28.1735C32.1022 31.2414 32.1022 31.2414 31.6933 33.8812C29.301 36.803 27.7004 36.4619 24.435 36.4764C23.7459 36.4676 23.0567 36.4588 22.3467 36.4497C21.3129 36.4629 21.3129 36.4629 20.2583 36.4764C15.1061 36.4534 15.1061 36.4534 13 33.8812C13.2125 26.7449 13.2125 26.7449 15.5667 23.9597C19.2281 21.3634 22.9228 21.6009 27.02 22.4659Z" fill="white"/>
<path d="M22.3467 8.48206C25.1507 8.76744 25.1507 8.76744 27.02 11.0505C27.3705 14.4038 27.3705 14.4038 27.02 17.8997C25.4427 20.1828 25.4427 20.1828 23.2813 21.3243C21.045 20.5621 19.3361 19.9305 17.6733 17.8997C17.4981 14.5465 17.4981 14.5465 17.6733 11.0505C19.5427 8.76744 19.5427 8.76744 22.3467 8.48206Z" fill="white"/>
</svg>
